<svg width="256" height="228" viewBox="0 0 256 228" fill="none" xmlns="http://www.w3.org/2000/svg">
<mask id="mask0_1_498" style="mask-type:alpha" maskUnits="userSpaceOnUse" x="0" y="0" width="256" height="228">
<path d="M128 227.734C125.44 227.734 122.862 227.271 120.266 226.346C117.671 225.422 115.414 224 113.494 222.08L94.8256 204.906C69.6523 181.652 47.5552 159.199 28.5344 137.546C9.51147 115.892 0 92.8704 0 68.48C0 48.9963 6.54187 32.7115 19.6256 19.6256C32.7115 6.54187 48.9248 0 68.2656 0C79.2885 0 90.0267 2.54187 100.48 7.62561C110.933 12.7115 120.107 20.6229 128 31.36C136.604 20.6229 145.919 12.7115 155.946 7.62561C165.972 2.54187 176.569 0 187.734 0C207.075 0 223.289 6.54187 236.374 19.6256C249.458 32.7115 256 48.9963 256 68.48C256 92.8704 246.507 115.91 227.52 137.6C208.533 159.29 186.382 181.761 161.066 205.014L142.506 222.08C140.586 224 138.329 225.422 135.734 226.346C133.138 227.271 130.56 227.734 128 227.734Z" fill="white"/>
</mask>
<g mask="url(#mask0_1_498)">
<path d="M128 227.734C125.44 227.734 122.862 227.271 120.266 226.346C117.671 225.422 115.414 224 113.494 222.08L94.8256 204.906C69.6523 181.652 47.5552 159.199 28.5344 137.546C9.51147 115.892 0 92.8704 0 68.48C0 48.9963 6.54187 32.7115 19.6256 19.6256C32.7115 6.54187 48.9248 0 68.2656 0C79.2885 0 90.0267 2.54187 100.48 7.62561C110.933 12.7115 120.107 20.6229 128 31.36C136.604 20.6229 145.919 12.7115 155.946 7.62561C165.972 2.54187 176.569 0 187.734 0C207.075 0 223.289 6.54187 236.374 19.6256C249.458 32.7115 256 48.9963 256 68.48C256 92.8704 246.507 115.91 227.52 137.6C208.533 159.29 186.382 181.761 161.066 205.014L142.506 222.08C140.586 224 138.329 225.422 135.734 226.346C133.138 227.271 130.56 227.734 128 227.734Z" fill="#FF1814"/>
<g filter="url(#filter0_f_1_498)">
<ellipse cx="163.767" cy="278.083" rx="96.7871" ry="98.0523" transform="rotate(-105 163.767 278.083)" fill="#FFAB25"/>
</g>
<g filter="url(#filter1_f_1_498)">
<ellipse cx="224.872" cy="261.709" rx="96.7871" ry="98.0523" transform="rotate(-105 224.872 261.709)" fill="#FFAB25"/>
</g>
<g filter="url(#filter2_f_1_498)">
<ellipse cx="69.9182" cy="172.247" rx="96.7871" ry="98.0523" transform="rotate(-105 69.9182 172.247)" fill="#FFAB25"/>
</g>
<g filter="url(#filter3_f_1_498)">
<ellipse cx="131.022" cy="155.873" rx="96.7871" ry="98.0523" transform="rotate(-105 131.022 155.873)" fill="#FFAB25"/>
</g>
<g filter="url(#filter4_f_1_498)">
<circle cx="-89.5873" cy="48.3191" r="108.428" transform="rotate(2.38352 -89.5873 48.3191)" fill="#BE2B29"/>
</g>
<g filter="url(#filter5_f_1_498)">
<ellipse cx="81.5175" cy="70.5237" rx="81.5175" ry="70.5237" transform="matrix(-0.67039 -0.742009 0.730841 -0.682548 206.356 122.303)" fill="#00C986"/>
</g>
<g style="mix-blend-mode:hard-light" filter="url(#filter6_f_1_498)">
<ellipse cx="91.8939" cy="79.4459" rx="91.8939" ry="79.4459" transform="matrix(-0.67039 -0.742009 0.730841 -0.682548 255.859 191.054)" fill="#297FFF"/>
</g>
</g>
<defs>
<filter id="filter0_f_1_498" x="-25.3186" y="90.0923" width="378.172" height="375.981" filterUnits="userSpaceOnUse" color-interpolation-filters="sRGB">
<feFlood flood-opacity="0" result="BackgroundImageFix"/>
<feBlend mode="normal" in="SourceGraphic" in2="BackgroundImageFix" result="shape"/>
<feGaussianBlur stdDeviation="45.5469" result="effect1_foregroundBlur_1_498"/>
</filter>
<filter id="filter1_f_1_498" x="35.7861" y="73.719" width="378.172" height="375.981" filterUnits="userSpaceOnUse" color-interpolation-filters="sRGB">
<feFlood flood-opacity="0" result="BackgroundImageFix"/>
<feBlend mode="normal" in="SourceGraphic" in2="BackgroundImageFix" result="shape"/>
<feGaussianBlur stdDeviation="45.5469" result="effect1_foregroundBlur_1_498"/>
</filter>
<filter id="filter2_f_1_498" x="-119.168" y="-15.7439" width="378.172" height="375.981" filterUnits="userSpaceOnUse" color-interpolation-filters="sRGB">
<feFlood flood-opacity="0" result="BackgroundImageFix"/>
<feBlend mode="normal" in="SourceGraphic" in2="BackgroundImageFix" result="shape"/>
<feGaussianBlur stdDeviation="45.5469" result="effect1_foregroundBlur_1_498"/>
</filter>
<filter id="filter3_f_1_498" x="-58.064" y="-32.1172" width="378.172" height="375.981" filterUnits="userSpaceOnUse" color-interpolation-filters="sRGB">
<feFlood flood-opacity="0" result="BackgroundImageFix"/>
<feBlend mode="normal" in="SourceGraphic" in2="BackgroundImageFix" result="shape"/>
<feGaussianBlur stdDeviation="45.5469" result="effect1_foregroundBlur_1_498"/>
</filter>
<filter id="filter4_f_1_498" x="-359.962" y="-222.055" width="540.749" height="540.749" filterUnits="userSpaceOnUse" color-interpolation-filters="sRGB">
<feFlood flood-opacity="0" result="BackgroundImageFix"/>
<feBlend mode="normal" in="SourceGraphic" in2="BackgroundImageFix" result="shape"/>
<feGaussianBlur stdDeviation="80.9722" result="effect1_foregroundBlur_1_498"/>
</filter>
<filter id="filter5_f_1_498" x="37.0352" y="-154.718" width="332.428" height="336.799" filterUnits="userSpaceOnUse" color-interpolation-filters="sRGB">
<feFlood flood-opacity="0" result="BackgroundImageFix"/>
<feBlend mode="normal" in="SourceGraphic" in2="BackgroundImageFix" result="shape"/>
<feGaussianBlur stdDeviation="45.5469" result="effect1_foregroundBlur_1_498"/>
</filter>
<filter id="filter6_f_1_498" x="76.5679" y="-109.574" width="351.497" height="356.433" filterUnits="userSpaceOnUse" color-interpolation-filters="sRGB">
<feFlood flood-opacity="0" result="BackgroundImageFix"/>
<feBlend mode="normal" in="SourceGraphic" in2="BackgroundImageFix" result="shape"/>
<feGaussianBlur stdDeviation="45.5469" result="effect1_foregroundBlur_1_498"/>
</filter>
</defs>
</svg>