<svg viewBox="0 0 116 21" fill="none" xmlns="http://www.w3.org/2000/svg">
<path d="M109.108 20.2299C107.649 20.2299 106.381 19.9518 105.306 19.3956C104.23 18.8303 103.391 17.9824 102.789 16.8518C102.196 15.7212 101.9 14.3216 101.9 12.6531C101.9 11.0666 102.21 9.69899 102.83 8.55017C103.45 7.39223 104.307 6.51238 105.401 5.91062C106.495 5.30885 107.74 5.00797 109.135 5.00797C110.475 5.00797 111.665 5.29973 112.705 5.88326C113.744 6.46679 114.551 7.31473 115.125 8.42708C115.709 9.53944 116.001 10.8706 116.001 12.4206C116.001 12.9768 115.996 13.419 115.987 13.7472H105.087V10.8752H113.347L111.788 11.4086C111.788 10.6609 111.679 10.0363 111.46 9.53488C111.25 9.02429 110.94 8.64135 110.53 8.38605C110.12 8.13076 109.623 8.00311 109.039 8.00311C108.428 8.00311 107.89 8.15355 107.425 8.45444C106.97 8.7462 106.614 9.18385 106.359 9.76738C106.112 10.3509 105.989 11.053 105.989 11.8736V13.2822C105.989 14.121 106.117 14.8322 106.372 15.4158C106.628 15.9993 106.992 16.4415 107.466 16.7424C107.941 17.0341 108.501 17.18 109.149 17.18C109.86 17.18 110.448 16.9977 110.913 16.633C111.378 16.2591 111.67 15.7349 111.788 15.0602H115.932C115.805 16.1178 115.444 17.0341 114.852 17.8091C114.268 18.5841 113.489 19.1813 112.513 19.6008C111.537 20.0202 110.402 20.2299 109.108 20.2299Z" fill="#18181B"/>
<path d="M96.5168 0.22098H100.661V19.833H96.5168V0.22098Z" fill="#18181B"/>
<path d="M89.4649 20.2296C88.6808 20.2296 87.9788 20.0929 87.3588 19.8193C86.7479 19.5458 86.2282 19.1355 85.7996 18.5885C85.3711 18.0323 85.052 17.3485 84.8423 16.537L85.2799 16.6601V19.833H81.177V5.40436H85.321V8.632L84.856 8.71406C85.0657 7.93906 85.3848 7.27803 85.8133 6.73098C86.251 6.1748 86.7844 5.75083 87.4135 5.45906C88.0426 5.15818 88.7492 5.00774 89.5333 5.00774C90.7095 5.00774 91.7307 5.31318 92.5968 5.92406C93.463 6.53495 94.1286 7.4148 94.5936 8.56362C95.0586 9.70333 95.2911 11.0573 95.2911 12.6255C95.2911 14.1846 95.054 15.5386 94.5799 16.6874C94.1058 17.8271 93.4265 18.7024 92.5421 19.3133C91.6668 19.9242 90.6411 20.2296 89.4649 20.2296ZM88.1794 17.0704C88.7994 17.0704 89.3191 16.888 89.7385 16.5233C90.167 16.1586 90.4861 15.6435 90.6958 14.9779C90.9146 14.3123 91.0241 13.5282 91.0241 12.6255C91.0241 11.7229 90.9146 10.9388 90.6958 10.2732C90.4861 9.60759 90.167 9.09244 89.7385 8.72774C89.3191 8.35392 88.7994 8.167 88.1794 8.167C87.5685 8.167 87.0442 8.35392 86.6066 8.72774C86.178 9.09244 85.8544 9.61215 85.6355 10.2869C85.4167 10.9524 85.3073 11.732 85.3073 12.6255C85.3073 13.5282 85.4167 14.3123 85.6355 14.9779C85.8544 15.6435 86.178 16.1586 86.6066 16.5233C87.0442 16.888 87.5685 17.0704 88.1794 17.0704ZM81.177 0.22098H85.321V5.40436H81.177V0.22098Z" fill="#18181B"/>
<path d="M70.7748 20.2299C69.8721 20.2299 69.0607 20.0521 68.3404 19.6965C67.6292 19.3409 67.0685 18.8349 66.6582 18.1784C66.257 17.5128 66.0564 16.7378 66.0564 15.8534C66.0564 14.504 66.453 13.4737 67.2462 12.7625C68.0395 12.0422 69.1837 11.5727 70.679 11.3538L73.1818 10.9983C73.6833 10.9253 74.0799 10.8341 74.3717 10.7247C74.6635 10.6153 74.8777 10.4694 75.0145 10.2871C75.1512 10.0956 75.2196 9.85399 75.2196 9.56223C75.2196 9.26135 75.1376 8.98782 74.9734 8.74164C74.8184 8.48635 74.5814 8.28576 74.2623 8.13988C73.9523 7.98488 73.5739 7.90738 73.1271 7.90738C72.416 7.90738 71.8461 8.09429 71.4176 8.46811C70.989 8.83282 70.7565 9.33429 70.7201 9.97252H66.4393C66.4758 9.00605 66.7676 8.149 67.3146 7.40135C67.8708 6.64459 68.6412 6.0565 69.626 5.63709C70.6107 5.21767 71.7504 5.00797 73.0451 5.00797C74.4036 5.00797 75.5524 5.23135 76.4915 5.67812C77.4307 6.11576 78.1373 6.74488 78.6114 7.56547C79.0946 8.38605 79.3362 9.3662 79.3362 10.5059V16.5235C79.3362 17.1709 79.3818 17.7727 79.473 18.3288C79.5733 18.8759 79.7146 19.2224 79.897 19.3683V19.8333H75.5889C75.4886 19.4412 75.4111 18.999 75.3564 18.5066C75.3017 18.0143 75.2698 17.4946 75.2607 16.9475L75.9308 16.6603C75.7576 17.3077 75.4384 17.9049 74.9734 18.4519C74.5176 18.9899 73.9295 19.423 73.2092 19.7512C72.498 20.0703 71.6865 20.2299 70.7748 20.2299ZM72.3065 17.1937C72.8901 17.1937 73.4052 17.066 73.852 16.8108C74.2987 16.5463 74.6407 16.1816 74.8777 15.7166C75.1239 15.2516 75.247 14.7228 75.247 14.1302V12.2428L75.5889 12.4343C75.3701 12.7261 75.0965 12.9494 74.7683 13.1044C74.4492 13.2594 74.0161 13.3916 73.469 13.5011L72.416 13.7062C71.7139 13.843 71.1851 14.0527 70.8295 14.3353C70.483 14.618 70.3098 15.0146 70.3098 15.5252C70.3098 16.0358 70.4967 16.4415 70.8705 16.7424C71.2443 17.0433 71.723 17.1937 72.3065 17.1937Z" fill="#18181B"/>
<path d="M51.9619 5.40445H56.3657L60.1541 17.7817H58.8275L62.4654 5.40445H66.7462L61.7543 19.8331H57.1453L51.9619 5.40445Z" fill="#18181B"/>
<path d="M45.4846 20.2299C44.0531 20.2299 42.7949 19.9199 41.7099 19.2999C40.634 18.6799 39.7997 17.7955 39.2071 16.6466C38.6236 15.4978 38.3318 14.153 38.3318 12.6121C38.3318 11.0712 38.6236 9.73091 39.2071 8.5912C39.7997 7.44238 40.634 6.55797 41.7099 5.93797C42.7949 5.31797 44.0531 5.00797 45.4846 5.00797C46.916 5.00797 48.1697 5.31797 49.2456 5.93797C50.3215 6.55797 51.1512 7.44238 51.7347 8.5912C52.3274 9.73091 52.6237 11.0712 52.6237 12.6121C52.6237 14.153 52.3274 15.4978 51.7347 16.6466C51.1512 17.7955 50.3215 18.6799 49.2456 19.2999C48.1697 19.9199 46.916 20.2299 45.4846 20.2299ZM45.4846 17.0569C46.0863 17.0569 46.6015 16.8928 47.03 16.5646C47.4585 16.2272 47.7868 15.7303 48.0147 15.0738C48.2427 14.4083 48.3566 13.5877 48.3566 12.6121C48.3566 11.1624 48.1059 10.0637 47.6044 9.31605C47.103 8.55929 46.3963 8.18091 45.4846 8.18091C44.8828 8.18091 44.3631 8.34958 43.9255 8.68694C43.4969 9.01517 43.1687 9.51208 42.9408 10.1777C42.7128 10.8341 42.5988 11.6456 42.5988 12.6121C42.5988 13.5786 42.7128 14.3946 42.9408 15.0602C43.1687 15.7258 43.4969 16.2272 43.9255 16.5646C44.3631 16.8928 44.8828 17.0569 45.4846 17.0569Z" fill="#18181B"/>
<path d="M26.2195 0.221189H30.5139V16.7772L29.748 15.8883C29.748 15.8883 31.875 15.8883 35.5339 15.8883C39.1928 15.8883 38.6924 19.8332 38.6924 19.8332H26.2195V0.221189Z" fill="#18181B"/>
<mask id="mask0_19187_11610" style="mask-type:alpha" maskUnits="userSpaceOnUse" x="0" y="0" width="20" height="21">
<path fill-rule="evenodd" clip-rule="evenodd" d="M5.90405 0C9.16477 0 11.8081 2.6503 11.8081 5.91961V8.16944H13.773C17.0337 8.16944 19.677 10.8197 19.677 14.0891C19.677 17.3584 17.0337 20.0087 13.773 20.0087H0V5.91961C0 2.6503 2.64333 0 5.90405 0Z" fill="url(#paint0_linear_19187_11610)"/>
</mask>
<g mask="url(#mask0_19187_11610)">
<g filter="url(#filter0_f_19187_11610)">
<circle cx="8.63163" cy="10.6806" r="13.3199" fill="#4B73FF"/>
</g>
<g filter="url(#filter1_f_19187_11610)">
<ellipse cx="10.095" cy="3.37099" rx="17.0591" ry="13.3199" fill="#FF66F4"/>
</g>
<g filter="url(#filter2_f_19187_11610)">
<ellipse cx="12.8775" cy="0.864443" rx="13.3199" ry="11.6977" fill="#FF0105"/>
</g>
<g filter="url(#filter3_f_19187_11610)">
<circle cx="10.3318" cy="3.36741" r="8.01052" fill="#FE7B02"/>
</g>
</g>
<defs>
<filter id="filter0_f_19187_11610" x="-10.6577" y="-8.60867" width="38.5785" height="38.5786" filterUnits="userSpaceOnUse" color-interpolation-filters="sRGB">
<feFlood flood-opacity="0" result="BackgroundImageFix"/>
<feBlend mode="normal" in="SourceGraphic" in2="BackgroundImageFix" result="shape"/>
<feGaussianBlur stdDeviation="2.98472" result="effect1_foregroundBlur_19187_11610"/>
</filter>
<filter id="filter1_f_19187_11610" x="-12.9335" y="-15.9183" width="46.057" height="38.5786" filterUnits="userSpaceOnUse" color-interpolation-filters="sRGB">
<feFlood flood-opacity="0" result="BackgroundImageFix"/>
<feBlend mode="normal" in="SourceGraphic" in2="BackgroundImageFix" result="shape"/>
<feGaussianBlur stdDeviation="2.98472" result="effect1_foregroundBlur_19187_11610"/>
</filter>
<filter id="filter2_f_19187_11610" x="-6.41182" y="-16.8027" width="38.5785" height="35.3342" filterUnits="userSpaceOnUse" color-interpolation-filters="sRGB">
<feFlood flood-opacity="0" result="BackgroundImageFix"/>
<feBlend mode="normal" in="SourceGraphic" in2="BackgroundImageFix" result="shape"/>
<feGaussianBlur stdDeviation="2.98472" result="effect1_foregroundBlur_19187_11610"/>
</filter>
<filter id="filter3_f_19187_11610" x="-3.64815" y="-10.6125" width="27.9599" height="27.9599" filterUnits="userSpaceOnUse" color-interpolation-filters="sRGB">
<feFlood flood-opacity="0" result="BackgroundImageFix"/>
<feBlend mode="normal" in="SourceGraphic" in2="BackgroundImageFix" result="shape"/>
<feGaussianBlur stdDeviation="2.98472" result="effect1_foregroundBlur_19187_11610"/>
</filter>
<linearGradient id="paint0_linear_19187_11610" x1="6.62168" y1="3.51617" x2="12.6165" y2="20.0011" gradientUnits="userSpaceOnUse">
<stop offset="0.025" stop-color="#FF8E63"/>
<stop offset="0.56" stop-color="#FF7EB0"/>
<stop offset="0.95" stop-color="#4B73FF"/>
</linearGradient>
</defs>
</svg>