<svg width="900" height="180" viewBox="0 0 900 180" fill="none" xmlns="http://www.w3.org/2000/svg">
<mask id="mask0_200_68" style="mask-type:alpha" maskUnits="userSpaceOnUse" x="0" y="0" width="203" height="180">
<path d="M101.134 180C99.1115 180 97.0745 179.634 95.0231 178.902C92.9735 178.172 91.1901 177.048 89.6731 175.531L74.9227 161.956C55.033 143.577 37.5739 125.83 22.5453 108.715C7.51511 91.6006 0 73.4043 0 54.1262C0 38.7264 5.1688 25.855 15.5064 15.512C25.8457 5.17066 38.656 0 53.9374 0C62.6467 0 71.131 2.00908 79.3903 6.02724C87.6496 10.0471 94.8976 16.3003 101.134 24.7868C107.932 16.3003 115.292 10.0471 123.214 6.02724C131.136 2.00908 139.509 0 148.331 0C163.612 0 176.423 5.17066 186.762 15.512C197.1 25.855 202.268 38.7264 202.268 54.1262C202.268 73.4043 194.768 91.6149 179.766 108.758C164.764 125.902 147.262 143.663 127.26 162.042L112.595 175.531C111.078 177.048 109.295 178.172 107.245 178.902C105.194 179.634 103.157 180 101.134 180Z" fill="white"/>
</mask>
<g mask="url(#mask0_200_68)">
<path d="M101.134 180C99.1115 180 97.0745 179.634 95.0231 178.902C92.9735 178.172 91.1901 177.048 89.6731 175.531L74.9227 161.956C55.033 143.577 37.5739 125.83 22.5453 108.715C7.51511 91.6006 0 73.4043 0 54.1262C0 38.7264 5.1688 25.855 15.5064 15.512C25.8457 5.17066 38.656 0 53.9374 0C62.6467 0 71.131 2.00908 79.3903 6.02724C87.6496 10.0471 94.8976 16.3003 101.134 24.7868C107.932 16.3003 115.292 10.0471 123.214 6.02724C131.136 2.00908 139.509 0 148.331 0C163.612 0 176.423 5.17066 186.762 15.512C197.1 25.855 202.268 38.7264 202.268 54.1262C202.268 73.4043 194.768 91.6149 179.766 108.758C164.764 125.902 147.262 143.663 127.26 162.042L112.595 175.531C111.078 177.048 109.295 178.172 107.245 178.902C105.194 179.634 103.157 180 101.134 180Z" fill="#FF1814"/>
<g filter="url(#filter0_f_200_68)">
<ellipse cx="76.4982" cy="77.474" rx="76.4982" ry="77.474" transform="matrix(-0.258732 -0.965949 0.965903 -0.258906 74.3546 313.747)" fill="#FFAB25"/>
</g>
<g filter="url(#filter1_f_200_68)">
<ellipse cx="76.4982" cy="77.474" rx="76.4982" ry="77.474" transform="matrix(-0.258732 -0.965949 0.965903 -0.258906 122.633 300.806)" fill="#FFAB25"/>
</g>
<g filter="url(#filter2_f_200_68)">
<ellipse cx="76.4982" cy="77.474" rx="76.4982" ry="77.474" transform="matrix(-0.258732 -0.965949 0.965903 -0.258906 0.203003 230.095)" fill="#FFAB25"/>
</g>
<g filter="url(#filter3_f_200_68)">
<ellipse cx="76.4982" cy="77.474" rx="76.4982" ry="77.474" transform="matrix(-0.258732 -0.965949 0.965903 -0.258906 48.4818 217.154)" fill="#FFAB25"/>
</g>
<g filter="url(#filter4_f_200_68)">
<ellipse cx="85.6703" cy="85.701" rx="85.6703" ry="85.701" transform="matrix(0.999134 0.0416031 -0.0415733 0.999135 -152.817 -51)" fill="#BE2B29"/>
</g>
<g filter="url(#filter5_f_200_68)">
<ellipse cx="64.4206" cy="55.7308" rx="64.4206" ry="55.7308" transform="matrix(-0.670258 -0.742128 0.730719 -0.682679 163.044 96.668)" fill="#00C986"/>
</g>
<g style="mix-blend-mode:hard-light" filter="url(#filter6_f_200_68)">
<ellipse cx="72.6207" cy="62.7816" rx="72.6207" ry="62.7816" transform="matrix(-0.670258 -0.742128 0.730719 -0.682679 202.157 151.008)" fill="#297FFF"/>
</g>
</g>
<path d="M855.832 66.2109C883.234 66.2109 899.676 83.6374 899.676 114.574V119.274H832.148C833.518 133.176 843.696 141.204 857.593 141.204C870.512 141.204 879.515 133.959 884.604 128.868L896.74 146.294C888.715 153.735 876.579 162.546 857.593 162.546C828.038 162.546 808.856 143.357 808.856 114.574C808.856 85.7913 827.45 66.2109 855.832 66.2109ZM854.657 85.5954C843.109 85.5954 834.693 91.2737 832.735 103.805H875.405C874.622 92.2528 866.401 85.5954 854.657 85.5954Z" fill="#A1A1AA"/>
<path d="M768.469 22.5586H792.544V159.621H768.469V22.5586Z" fill="#A1A1AA"/>
<path d="M708.969 162.558C694.289 162.558 684.503 156.292 678.826 146.894H678.435V159.621H654.36V22.5586H678.435V81.8869H678.826C684.503 72.4884 694.289 66.2227 708.969 66.2227C732.653 66.2227 752.422 83.4534 752.422 114.39C752.422 145.327 732.653 162.558 708.969 162.558ZM702.901 139.845C717.386 139.845 727.368 129.663 727.368 114.39C727.368 99.1176 717.386 88.9358 702.901 88.9358C688.417 88.9358 678.435 99.1176 678.435 114.39C678.435 129.663 688.417 139.845 702.901 139.845Z" fill="#A1A1AA"/>
<path d="M578.774 162.546C555.09 162.546 535.321 145.315 535.321 114.379C535.321 83.4416 555.09 66.2109 578.774 66.2109C593.454 66.2109 603.241 72.4766 608.917 81.8752H609.308V69.148H633.188V159.609H609.308V146.882H608.917C603.241 156.28 593.454 162.546 578.774 162.546ZM584.842 139.833C599.326 139.833 609.308 129.651 609.308 114.379C609.308 99.1059 599.326 88.9241 584.842 88.9241C570.357 88.9241 560.375 99.1059 560.375 114.379C560.375 129.651 570.357 139.833 584.842 139.833Z" fill="#A1A1AA"/>
<path d="M486.28 131.817L507.615 69.1602H535.017L498.024 159.621H474.536L437.738 69.1602H464.945L486.28 131.817Z" fill="#A1A1AA"/>
<path d="M387.404 66.2109C416.177 66.2109 437.512 85.9871 437.512 114.379C437.512 142.77 416.177 162.546 387.404 162.546C358.632 162.546 337.297 142.77 337.297 114.379C337.297 85.9871 358.632 66.2109 387.404 66.2109ZM387.404 88.9241C372.724 88.9241 361.959 98.9101 361.959 114.379C361.959 129.847 372.724 139.833 387.404 139.833C402.084 139.833 412.654 129.847 412.654 114.379C412.654 98.9101 402.084 88.9241 387.404 88.9241Z" fill="#A1A1AA"/>
<path d="M296.91 22.5586H320.985V159.621H296.91V22.5586Z" fill="#A1A1AA"/>
<defs>
<filter id="filter0_f_200_68" x="-20.0302" y="71.2083" width="298.849" height="297.173" filterUnits="userSpaceOnUse" color-interpolation-filters="sRGB">
<feFlood flood-opacity="0" result="BackgroundImageFix"/>
<feBlend mode="normal" in="SourceGraphic" in2="BackgroundImageFix" result="shape"/>
<feGaussianBlur stdDeviation="36" result="effect1_foregroundBlur_200_68"/>
</filter>
<filter id="filter1_f_200_68" x="28.2486" y="58.2673" width="298.849" height="297.173" filterUnits="userSpaceOnUse" color-interpolation-filters="sRGB">
<feFlood flood-opacity="0" result="BackgroundImageFix"/>
<feBlend mode="normal" in="SourceGraphic" in2="BackgroundImageFix" result="shape"/>
<feGaussianBlur stdDeviation="36" result="effect1_foregroundBlur_200_68"/>
</filter>
<filter id="filter2_f_200_68" x="-94.1818" y="-12.4434" width="298.849" height="297.173" filterUnits="userSpaceOnUse" color-interpolation-filters="sRGB">
<feFlood flood-opacity="0" result="BackgroundImageFix"/>
<feBlend mode="normal" in="SourceGraphic" in2="BackgroundImageFix" result="shape"/>
<feGaussianBlur stdDeviation="36" result="effect1_foregroundBlur_200_68"/>
</filter>
<filter id="filter3_f_200_68" x="-45.903" y="-25.3843" width="298.849" height="297.173" filterUnits="userSpaceOnUse" color-interpolation-filters="sRGB">
<feFlood flood-opacity="0" result="BackgroundImageFix"/>
<feBlend mode="normal" in="SourceGraphic" in2="BackgroundImageFix" result="shape"/>
<feGaussianBlur stdDeviation="36" result="effect1_foregroundBlur_200_68"/>
</filter>
<filter id="filter4_f_200_68" x="-284.455" y="-175.511" width="427.343" height="427.405" filterUnits="userSpaceOnUse" color-interpolation-filters="sRGB">
<feFlood flood-opacity="0" result="BackgroundImageFix"/>
<feBlend mode="normal" in="SourceGraphic" in2="BackgroundImageFix" result="shape"/>
<feGaussianBlur stdDeviation="64" result="effect1_foregroundBlur_200_68"/>
</filter>
<filter id="filter5_f_200_68" x="29.2359" y="-122.289" width="262.706" height="266.204" filterUnits="userSpaceOnUse" color-interpolation-filters="sRGB">
<feFlood flood-opacity="0" result="BackgroundImageFix"/>
<feBlend mode="normal" in="SourceGraphic" in2="BackgroundImageFix" result="shape"/>
<feGaussianBlur stdDeviation="36" result="effect1_foregroundBlur_200_68"/>
</filter>
<filter id="filter6_f_200_68" x="60.4713" y="-86.6069" width="277.773" height="281.722" filterUnits="userSpaceOnUse" color-interpolation-filters="sRGB">
<feFlood flood-opacity="0" result="BackgroundImageFix"/>
<feBlend mode="normal" in="SourceGraphic" in2="BackgroundImageFix" result="shape"/>
<feGaussianBlur stdDeviation="36" result="effect1_foregroundBlur_200_68"/>
</filter>
</defs>
</svg>